<?xml version="1.0" standalone="no"?><!DOCTYPE svg PUBLIC "-//W3C//DTD SVG 1.1//EN" "http://www.w3.org/Graphics/SVG/1.1/DTD/svg11.dtd"><svg t="1487426584021" class="icon" style="" viewBox="0 0 1024 1024" version="1.1" xmlns="http://www.w3.org/2000/svg" p-id="1714" xmlns:xlink="http://www.w3.org/1999/xlink" width="64" height="64"><defs><style type="text/css"></style></defs><path d="M116.504 840.978q0 24.175 14.021 43.514t37.229 28.042v4.835h710.731v-4.835q22.241-8.703 36.745-28.042t14.506-43.514q0-12.571-4.351-24.658t-11.121-21.757-14.988-18.856-16.439-15.471-14.506-11.12-11.12-6.768l-3.868-2.901-228.208-127.642v-52.217q45.448-27.076 73.491-73.975t28.042-102.017v-76.392q0-84.127-59.953-143.597t-144.080-59.469-143.596 59.469-59.469 143.596v76.392q0 55.118 27.559 102.017t73.974 73.974v52.217l-228.208 127.642q-2.901 1.934-8.219 4.835t-18.373 13.538-23.208 22.241-18.373 28.042-8.219 32.877zM116.504 840.978z" p-id="1715" fill="#ffffff"></path></svg>