<?xml version="1.0" standalone="no"?><!DOCTYPE svg PUBLIC "-//W3C//DTD SVG 1.1//EN" "http://www.w3.org/Graphics/SVG/1.1/DTD/svg11.dtd"><svg t="1487591817526" class="icon" style="" viewBox="0 0 1024 1024" version="1.1" xmlns="http://www.w3.org/2000/svg" p-id="2030" xmlns:xlink="http://www.w3.org/1999/xlink" width="32" height="32"><defs><style type="text/css"></style></defs><path d="M514.704 3.964c-280.47 0-507.835 227.365-507.835 507.835s227.365 507.835 507.835 507.835 507.835-227.365 507.835-507.835-227.365-507.835-507.835-507.835zM654.357 544.445l131.819 131.819c18.499 18.499 18.499 48.825 0 67.397l-37.58 37.58c-18.499 18.499-48.754 18.499-67.324 0l-131.747-131.747c-18.499-18.499-48.825-18.499-67.397 0l-131.819 131.747c-18.499 18.499-48.825 18.499-67.324 0l-37.58-37.58c-18.499-18.499-18.499-48.825 0-67.397l131.819-131.819c18.499-18.499 18.499-48.825 0-67.324l-131.819-131.819c-18.499-18.499-18.499-48.825 0-67.324l37.58-37.58c18.499-18.499 48.825-18.499 67.324 0l131.819 131.819c18.499 18.499 48.825 18.499 67.397 0l131.747-131.819c18.572-18.499 48.825-18.499 67.324 0l37.652 37.58c18.499 18.499 18.499 48.825 0 67.324l-131.819 131.819c-18.642 18.499-18.642 48.826-0.071 67.324z" p-id="2031" fill="#ffffff"></path></svg>