<?xml version="1.0" standalone="no"?><!DOCTYPE svg PUBLIC "-//W3C//DTD SVG 1.1//EN" "http://www.w3.org/Graphics/SVG/1.1/DTD/svg11.dtd"><svg t="1487580272991" class="icon" style="" viewBox="0 0 1024 1024" version="1.1" xmlns="http://www.w3.org/2000/svg" p-id="2350" xmlns:xlink="http://www.w3.org/1999/xlink" width="200" height="200"><defs><style type="text/css"></style></defs><path d="M323.945412 574.885647l0 121.615059c0 16.624941 13.492706 30.117647 30.117647 30.117647l120.832 0c8.011294 0 15.721412-3.192471 21.323294-8.854588l356.412235-358.761412 93.123765-93.726118c11.806118-11.806118 18.311529-27.527529 18.311529-44.272941 0-16.685176-6.505412-32.406588-18.251294-44.092235l-75.173647-75.715765c-23.672471-23.792941-64.752941-23.732706-88.304941 0l-93.184 93.786353L332.739765 553.622588C327.137882 559.284706 323.945412 566.934588 323.945412 574.885647zM827.934118 143.600941l75.233882 79.088941-71.800471 72.282353-40.176941-40.417882-37.827765-38.068706L827.934118 143.600941zM384.180706 587.294118l326.354824-328.402824 78.305882 78.848-326.475294 328.643765L384.180706 666.383059 384.180706 587.294118z" p-id="2351" fill="#cdcdcd"></path><path d="M958.283294 391.107765c-16.624941 0-30.117647 13.492706-30.117647 30.117647l0 456.944941c0 38.189176-30.840471 69.210353-68.668235 69.210353L168.538353 947.380706c-37.767529 0-68.547765-31.081412-68.547765-69.210353L99.990588 182.814118c0-38.189176 30.780235-69.270588 68.547765-69.270588l452.547765 0c16.624941 0 30.117647-13.492706 30.117647-30.117647s-13.492706-30.117647-30.117647-30.117647L168.538353 53.308235c-71.017412 0-128.783059 58.066824-128.783059 129.505882l0 695.356235c0 71.439059 57.765647 129.445647 128.783059 129.445647L859.557647 1007.616c71.077647 0 128.903529-58.066824 128.903529-129.445647L988.461176 421.225412C988.400941 404.540235 974.968471 391.107765 958.283294 391.107765z" p-id="2352" fill="#cdcdcd"></path></svg>