<?xml version="1.0" standalone="no"?><!DOCTYPE svg PUBLIC "-//W3C//DTD SVG 1.1//EN" "http://www.w3.org/Graphics/SVG/1.1/DTD/svg11.dtd"><svg t="1487580167692" class="icon" style="" viewBox="0 0 1024 1024" version="1.1" xmlns="http://www.w3.org/2000/svg" p-id="997" xmlns:xlink="http://www.w3.org/1999/xlink" width="200" height="200"><defs><style type="text/css"></style></defs><path d="M513.410468 598.038567c-22.567493 0-42.31405 19.746556-42.314049 42.31405s16.92562 42.31405 42.314049 42.31405c22.567493 0 42.31405-19.746556 42.31405-42.31405s-19.746556-42.31405-42.31405-42.31405zM516.231405 287.735537c-56.418733 0-93.090909 22.567493-115.658402 62.060606-11.283747 22.567493-16.92562 42.31405-16.92562 59.23967 0 16.92562 14.104683 31.030303 31.030303 31.030303 16.92562 0 31.030303-14.104683 31.030303-31.030303 5.641873-2.820937 5.641873-5.641873 5.641873-11.283747 2.820937-8.46281 2.820937-16.92562 8.46281-22.567493 11.283747-19.746556 28.209366-28.209366 56.418733-28.209366 56.418733 0 78.986226 62.060606 36.672176 93.090909-53.597796 39.493113-70.523416 73.344353-70.523416 101.553719V544.440771c2.820937 16.92562 19.746556 28.209366 36.672177 25.38843 16.92562-2.820937 28.209366-14.104683 28.209366-31.030303 0 0 0-2.820937 2.820937-8.46281 5.641873-11.283747 19.746556-25.38843 42.314049-42.314049 87.449036-64.881543 42.31405-200.286501-76.165289-200.286502z" p-id="998" fill="#dbdbdb"></path><path d="M894.236915 118.479339h-761.652893c-31.030303 0-56.418733 25.38843-56.418733 56.418733v620.60606c0 31.030303 25.38843 56.418733 56.418733 56.418733h310.30303l50.77686 47.955923c11.283747 11.283747 28.209366 11.283747 39.493113 0l50.776859-47.955923h310.303031c31.030303 0 56.418733-25.38843 56.418732-56.418733v-620.60606c0-31.030303-25.38843-56.418733-56.418732-56.418733z m-28.209367 589.575757c0 31.030303-25.38843 56.418733-56.418733 56.418733h-225.674931l-70.523416 56.418733-70.523416-56.418733h-225.674931c-31.030303 0-56.418733-25.38843-56.418733-56.418733v-451.349862c0-31.030303 25.38843-56.418733 56.418733-56.418733h592.396694c31.030303 0 56.418733 25.38843 56.418733 56.418733v451.349862z" p-id="999" fill="#dbdbdb"></path></svg>