<?xml version="1.0" standalone="no"?><!DOCTYPE svg PUBLIC "-//W3C//DTD SVG 1.1//EN" "http://www.w3.org/Graphics/SVG/1.1/DTD/svg11.dtd"><svg t="1487585433750" class="icon" style="" viewBox="0 0 1024 1024" version="1.1" xmlns="http://www.w3.org/2000/svg" p-id="3368" xmlns:xlink="http://www.w3.org/1999/xlink" width="32" height="32"><defs><style type="text/css"></style></defs><path d="M789.649578 733.334991c0 12.213159-9.522887 22.101367-21.262257 22.101367H348.97709c-11.745509 0-21.256116-9.887184-21.256117-22.101367s9.511631-22.101367 21.256117-22.101367h419.411255c11.739369 0.001023 21.261233 9.888208 21.261233 22.101367z m0-144.57884c0 12.213159-9.522887 22.1116-21.262257 22.111601H348.97709c-11.745509 0-21.256116-9.898441-21.256117-22.111601 0-12.202926 9.511631-22.101367 21.256117-22.101367h419.411255c11.739369 0 21.261233 9.898441 21.261233 22.101367z m0-139.082662c0 12.208043-9.522887 22.1116-21.262257 22.111601H348.97709c-11.745509 0-21.256116-9.903557-21.256117-22.111601 0-12.213159 9.511631-22.101367 21.256117-22.101367h419.411255c11.739369 0 21.261233 9.887184 21.261233 22.101367z m112.231107 426.333922H187.597609c4.248767-9.609869 6.689353-20.2543 6.689352-31.503505V304.652582c0-2.402723 1.939165-4.428869 4.248768-4.42887h668.448168c0.119727 0 0.223081 0.044002 0.337691 0.044002 0.103354 0 0.212848-0.044002 0.332574-0.044002h60.289108c2.315742 0 4.260024 2.026146 4.260024 4.42887V844.503906c-0.001023 17.372669-13.597693 31.503505-30.322609 31.503505zM91.153046 844.503906V151.711284c0-2.396583 1.944282-4.412496 4.248768-4.412497h746.402611c2.309602 0 4.248767 2.015913 4.248767 4.412497v104.310717h-647.517463c-25.789363 0-46.77328 21.806655-46.77328 48.630581V844.503906c0 17.372669-13.597693 31.503505-30.315446 31.503505-16.70752 0-30.293957-14.130835-30.293957-31.503505z m836.789201-588.481905h-39.364543V151.711284c0-26.807552-20.983917-48.625464-46.773279-48.625464H95.401814c-25.789363 0-46.77328 21.817911-46.77328 48.625464V844.503906c0 41.744753 32.658817 75.716472 72.818469 75.716473h780.433682c40.170908 0 72.839959-33.971719 72.839958-75.716473V304.652582c0-26.823925-20.983917-48.63058-46.778396-48.630581z" fill="#707070" p-id="3369"></path></svg>