<?xml version="1.0" standalone="no"?><!DOCTYPE svg PUBLIC "-//W3C//DTD SVG 1.1//EN" "http://www.w3.org/Graphics/SVG/1.1/DTD/svg11.dtd"><svg t="1487428502913" class="icon" style="" viewBox="0 0 1024 1024" version="1.1" xmlns="http://www.w3.org/2000/svg" p-id="2443" xmlns:xlink="http://www.w3.org/1999/xlink" width="64" height="64"><defs><style type="text/css"></style></defs><path d="M891.733 859.733h-736c-51.2 0-96-44.8-96-96v-480c0-51.2 44.8-96 96-96h729.6c51.2 0 96 44.8 96 96v473.6c6.4 57.6-38.4 102.4-89.6 102.4zM155.733 251.733c-19.2 0-32 12.8-32 32v473.6c0 19.2 12.8 32 32 32h729.6c19.2 0 32-12.8 32-32v-473.6c0-19.2-12.8-32-32-32h-729.6z" p-id="2444" fill="#ffffff"></path><path d="M526.933 706.133l-448-448 44.8-44.8 403.2 403.2 403.2-403.2 44.8 44.8z" p-id="2445" fill="#ffffff"></path></svg>